DBRep_DrawableShape

CASCADE Topology V1, (c) Matra-Datavision
Locations 11
1
              1               0               0               0 
              0               1               0              50 
              0               0               1               0 
2  1 -1 0
1
              1               0               0               0 
              0               1               0              50 
              0               0               1               0 
2  3 1 1 -1 0
2  3 -1 0
1
              1               0               0               0 
              0               1               0              50 
              0               0               1               0 
2  6 1 3 -1 0
2  6 -1 0
1
              1               0               0               0 
              0               1               0              50 
              0               0               1               0 
2  9 1 6 -1 0
2  9 -1 0
Curve2ds 83
1 6.2840579718055833 0 0 -1 
1 0 0 0 -1 
1 3.140719988963796 0 0 -1 
1 1.2699999999999956 0 0 -1 
8 0 50
1 6.2840579718055833 0 0 -1 
1 0 0 0 -1 
1 0 0 1 0 
1 0 -50 1 0 
1 -0.63550826679151839 -0.058184906553305216 0.99999961922824943 -0.0008726645152351538 
1 3.1424653182157911 0 0 -1 
1 0 0 0 -1 
8 0 50
1 6.2823126425535891 0 0 -1 
1 0.31750000000001666 0 0 -1 
1 0 0 1 0 
1 0 -50 1 0 
2 -67.310482878835046 -1.622460890754537e-15 -1 0 -0 -1 67.944999999999993
8 3.140719988963796 3.1424653182157911
1 9.4247779607693793 0 -1 -0 
2 -68.103829052982249 -5.2587214104273079e-15 -1 0 -0 -1 67.944999999999993
8 3.140719988963796 3.1424653182157911
1 9.4247779607693793 -50 -1 -0 
2 -68.103829052982249 -5.2587214104273079e-15 -1 0 -0 -1 67.944999999999993
1 6.2823126425535891 0 0 -1 
1 1.2699999999999956 0 0 -1 
1 0 0 1 0 
1 0 -50 1 0 
1 0.63449124962835413 0.05929319048765061 -0.99999961922824943 -0.0008726645152351538 
1 0 0 1 0 
1 0 -50 1 0 
2 -67.310482878835046 -1.622460890754537e-15 1 0 0 -1 66.674999999999997
1 3.140719988963796 0 0 -1 
1 0.31750000000001666 0 0 -1 
8 0 50
1 6.2840579718055833 0 0 -1 
1 0 0 0 -1 
1 0 0 1 0 
1 0 -50 1 0 
1 -0.15885492451884886 -0.059293190487657493 0.99999961922824943 -0.00087266451523512691 
1 3.1424653182157911 0 0 -1 
1 0 0 0 -1 
8 0 50
1 6.2823126425535891 0 0 -1 
1 3.1749999999999963 0 0 -1 
1 0 0 1 0 
1 0 -50 1 0 
2 -68.103829052982249 -5.2587214104273079e-15 -1 0 -0 -1 68.262500000000003
8 3.140719988963796 3.1424653182157911
1 9.4247779607693793 0 -1 -0 
2 -69.851308113920553 -7.357119797615461e-16 -1 0 -0 -1 68.262500000000003
8 3.140719988963796 3.1424653182157911
1 9.4247779607693793 -50 -1 -0 
2 -69.851308113920553 -7.357119797615461e-16 -1 0 -0 -1 68.262500000000003
1 0.15864495458613703 0.059570261471234141 -0.99999961922824943 -0.00087266451523512691 
1 0 0 1 0 
1 0 -50 1 0 
1 3.140719988963796 0 0 -1 
1 3.1749999999999963 0 0 -1 
8 0 50
1 6.2840579718055833 0 0 -1 
1 0 0 0 -1 
1 0 0 1 0 
1 0 -50 1 0 
1 -1.5888341063521665 -0.059570261471240137 0.99999961922824943 -0.00087266451523514978 
1 3.1424653182157911 0 0 -1 
1 0 0 0 -1 
8 0 50
1 6.2823126425535891 0 0 -1 
1 4.7624999999999948 0 0 -1 
1 0 0 1 0 
1 0 -50 1 0 
2 -69.851308113920553 -7.357119797615461e-16 -1 0 -0 -1 71.4375
8 3.140719988963796 3.1424653182157911
1 9.4247779607693793 0 -1 -0 
2 -73.820745627484783 -5.5496409512002233e-16 -1 0 -0 -1 71.4375
8 3.140719988963796 3.1424653182157911
1 9.4247779607693793 -50 -1 -0 
2 -73.820745627484783 -5.5496409512002233e-16 -1 0 -0 -1 71.4375
1 1.5861646846975219 0.062340971307110263 -0.99999961922824943 -0.00087266451523514978 
1 0 0 1 0 
1 0 -50 1 0 
1 3.140719988963796 0 0 -1 
1 4.7624999999999948 0 0 -1 
1 0 0 1 0 
1 0 -50 1 0 
1 -2.3832728288667084 -0.062340971307111553 0.99999961922824943 -0.00087266451523515184 
1 3.1424653182157911 0 0 -1 
1 0 0 0 -1 
1 0 0 1 0 
1 0 -50 1 0 
2 -73.820745627484783 -5.5496409512002233e-16 -1 0 -0 -1 76.200000000000003
1 2.3792253577078242 0.06649703606091785 -0.99999961922824943 -0.00087266451523515184 
1 0 0 1 0 
1 0 -50 1 0 
Curves 23
1 -0.058184906553303592 914.39999999999998 66.674974612043528 0 1 0 
1 -0.059293190487652234 914.39999999999998 67.9449741284634 0 1 0 
1 -0.058184906553303592 914.39999999999998 66.674974612043528 -0.0008726645152351538 0 0.99999961922824943 
1 0.059293190487652234 914.39999999999998 67.9449741284634 0 1 0 
2 0 914.39999999999998 0 -0 1 -0 0 0 -1 -1 -0 -0 67.944999999999993
1 0.058184906553303592 914.39999999999998 66.674974612043528 0 1 0 
1 0.059293190487652234 914.39999999999998 67.9449741284634 -0.0008726645152351538 0 -0.99999961922824943 
2 0 914.39999999999998 0 -0 -1 -0 0 -0 1 -1 0 0 66.674999999999997
1 -0.059570261471239401 914.39999999999998 68.262474007568386 0 1 0 
1 -0.059293190487652234 914.39999999999998 67.9449741284634 -0.00087266451523512691 0 0.99999961922824943 
1 0.059570261471239401 914.39999999999998 68.262474007568386 0 1 0 
2 0 914.39999999999998 0 -0 1 -0 0 0 -1 -1 -0 -0 68.262500000000003
1 0.059570261471239401 914.39999999999998 68.262474007568386 -0.00087266451523512691 0 -0.99999961922824943 
1 -0.062340971307110998 914.39999999999998 71.437472798618074 0 1 0 
1 -0.059570261471239401 914.39999999999998 68.262474007568386 -0.00087266451523514968 0 0.99999961922824931 
1 0.062340971307110998 914.39999999999998 71.437472798618074 0 1 0 
2 0 914.39999999999998 0 -0 1 -0 0 0 -1 -1 -0 -0 71.4375
1 0.062340971307110998 914.39999999999998 71.437472798618074 -0.00087266451523514968 0 -0.99999961922824931 
1 -0.066497036060918405 914.39999999999998 76.199970985192607 0 1 0 
1 -0.062340971307110998 914.39999999999998 71.437472798618074 -0.00087266451523515184 0 0.99999961922824943 
1 0.066497036060918405 914.39999999999998 76.199970985192607 0 1 0 
2 0 914.39999999999998 0 -0 1 -0 0 0 -1 -1 -0 -0 76.200000000000003
1 0.066497036060918405 914.39999999999998 76.199970985192607 -0.00087266451523515184 0 -0.99999961922824943 
Polygon3D 0
PolygonOnTriangulations 0
Surfaces 20
1 -0.058184906553303592 914.39999999999998 66.674974612043528 0.99999961922824943 -0 0.0008726645152351538 -0.0008726645152351538 0 0.99999961922824943 -0 -1 0 
2 0 914.39999999999998 0 -0 -1 0 0 -0 1 -1 0 0 66.674999999999997
2 0 914.39999999999998 0 0 -1 -0 0 0 -1 -1 -0 -0 67.944999999999993
2 0 914.39999999999998 0 -0 -1 0 0 -0 1 -1 0 0 67.944999999999993
1 -0.059293190487652234 914.39999999999998 67.9449741284634 0.99999961922824943 -0 0.00087266451523512691 -0.00087266451523512691 0 0.99999961922824943 -0 -1 0 
1 1.622460890754537e-15 914.39999999999998 67.310482878835046 0 1 0 0 -0 1 1 0 -0 
1 0.059293190487652234 914.39999999999998 67.9449741284634 -0.99999961922824943 0 0.0008726645152351538 -0.0008726645152351538 0 -0.99999961922824943 -0 -1 0 
1 0.059570261471239401 914.39999999999998 68.262474007568386 -0.99999961922824943 0 0.00087266451523512691 -0.00087266451523512691 0 -0.99999961922824943 -0 -1 0 
1 5.2587214104273079e-15 914.39999999999986 68.103829052982249 0 1 0 0 -0 1 1 0 -0 
2 0 914.39999999999998 0 0 -1 -0 0 0 -1 -1 -0 -0 68.262500000000003
2 0 914.39999999999998 0 -0 -1 0 0 -0 1 -1 0 0 68.262500000000003
1 -0.059570261471239401 914.39999999999998 68.262474007568386 0.99999961922824943 -0 0.00087266451523514978 -0.00087266451523514978 0 0.99999961922824943 -0 -1 0 
1 0.062340971307110998 914.39999999999998 71.437472798618074 -0.99999961922824943 0 0.00087266451523514978 -0.00087266451523514978 0 -0.99999961922824943 -0 -1 0 
1 7.357119797615461e-16 914.39999999999998 69.851308113920553 0 1 0 0 -0 1 1 0 -0 
2 0 914.39999999999998 0 0 -1 -0 0 0 -1 -1 -0 -0 71.4375
2 0 914.39999999999998 0 -0 -1 0 0 -0 1 -1 0 0 71.4375
1 -0.062340971307110998 914.39999999999998 71.437472798618074 0.99999961922824943 -0 0.00087266451523515184 -0.00087266451523515184 0 0.99999961922824943 -0 -1 0 
1 0.066497036060918405 914.39999999999998 76.199970985192607 -0.99999961922824943 0 0.00087266451523515184 -0.00087266451523515184 0 -0.99999961922824943 -0 -1 0 
1 5.5496409512002233e-16 914.40000000000009 73.820745627484783 0 1 0 0 -0 1 1 0 -0 
2 0 914.39999999999998 0 0 -1 -0 0 0 -1 -1 -0 -0 76.200000000000003
Triangulations 0

TShapes 105
Ve
1e-07
-0.0581849065533036 914.4 66.6749746120435
0 0

0101101
*
Ed
 1e-07 1 1 0
1  1 0 0 50
2  1 2 0 0 50
2  2 1 0 0 50
0

0101000
+105 0 -105 1 *
Ve
1.00000085320639e-07
-0.0592931904876522 914.4 67.9449741284634
0 0

0101101
*
Ve
1.00000085320639e-07
-0.0592931904876522 964.4 67.9449741284634
0 0

0101101
*
Ed
 1e-07 1 1 0
1  2 0 0 50
2  3 3 0 0 50
2  4 1 0 0 50
2  5 4 0 0 50
2  6 5 0 0 50
0

0101000
+103 0 -102 0 *
Ed
 1e-07 1 1 0
1  3 0 0 1.27
2  7 1 0 0 1.27
2  8 1 2 0 1.27
2  9 6 0 0 1.27
0

0101000
+105 0 -103 0 *
Ed
 1e-07 1 1 0
1  3 0 0 1.27
2  7 1 0 0 1.27
2  8 1 2 0 1.27
2  9 6 0 0 1.27
0

0101000
+105 0 -102 2 *
Wi

0101100
+104 0 -101 0 -100 0 +99 1 *
Fa
0  1e-07 1 0

0101000
+98 0 *
Ve
1.00000085320639e-07
0.0592931904876522 914.4 67.9449741284634
0 0

0101101
*
Ve
1.00000085320639e-07
0.0592931904876522 964.4 67.9449741284634
0 0

0101101
*
Ed
 1e-07 1 1 0
1  4 0 0 50
2  10 3 0 0 50
2  11 7 0 0 50
2  12 4 0 0 50
2  13 8 0 0 50
0

0101000
+96 0 -95 0 *
Ed
 1.00000085313701e-07 1 1 0
1  5 0 3.1407199889638 3.14246531821579
2  14 3 0 3.1407199889638 3.14246531821579
2  15 3 2 3.1407199889638 3.14246531821579
2  16 6 0 3.1407199889638 3.14246531821579
2  17 4 0 3.1407199889638 3.14246531821579
2  18 9 0 3.1407199889638 3.14246531821579
0

0101000
+103 0 -96 0 *
Ed
 1.00000085313701e-07 1 1 0
1  5 0 3.1407199889638 3.14246531821579
2  14 3 0 3.1407199889638 3.14246531821579
2  15 3 2 3.1407199889638 3.14246531821579
2  16 6 0 3.1407199889638 3.14246531821579
2  19 4 2 3.1407199889638 3.14246531821579
2  20 9 4 3.1407199889638 3.14246531821579
0

0101000
+102 2 -95 2 *
Wi

0101100
+101 0 -94 0 -93 0 +92 1 *
Fa
0  1e-07 3 0

0101000
+91 0 *
Ve
1e-07
0.0581849065533036 914.4 66.6749746120435
0 0

0101101
*
Ed
 1e-07 1 1 0
1  6 0 0 50
2  21 2 0 0 50
2  22 7 0 0 50
0

0101000
+89 0 -89 1 *
Ed
 1e-07 1 1 0
1  7 0 0 1.27
2  23 7 0 0 1.27
2  24 7 2 0 1.27
2  25 6 0 0 1.27
0

0101000
+96 0 -89 0 *
Ed
 1e-07 1 1 0
1  7 0 0 1.27
2  23 7 0 0 1.27
2  24 7 2 0 1.27
2  25 6 0 0 1.27
0

0101000
+95 2 -89 0 *
Wi

0101100
+94 0 -88 0 -87 0 +86 1 *
Fa
0  1e-07 7 0

0101000
+85 0 *
Ed
 1e-07 1 1 0
1  8 0 6.28231264255359 6.28405797180558
2  26 2 0 6.28231264255359 6.28405797180558
2  27 2 2 6.28231264255359 6.28405797180558
2  28 6 0 6.28231264255359 6.28405797180558
0

0101000
+89 0 -105 0 *
Wi

0101100
+88 0 -104 0 -83 0 +83 1 *
Fa
0  1e-07 2 0

0101000
+82 0 *
Wi

0101100
+100 0 +93 0 +87 0 +83 0 *
Fa
0  1e-07 6 0

0101000
+80 0 *
Wi

0101100
+99 1 +92 1 +86 1 +83 1 *
Fa
0  1e-07 6 1

0101000
+78 0 *
Sh

0101100
+97 0 +90 0 +84 0 +81 0 +79 0 -77 0 *
So

0100000
-76 0 *
Ve
1.00000085710952e-07
-0.0595702614712394 914.4 68.2624740075684
0 0

0101101
*
Ve
1.00000085710952e-07
-0.0595702614712394 964.4 68.2624740075684
0 0

0101101
*
Ed
 1e-07 1 1 0
1  9 0 0 50
2  29 10 0 0 50
2  30 5 0 0 50
2  31 11 0 0 50
2  32 12 0 0 50
0

0101000
+74 0 -73 0 *
Ed
 1e-07 1 1 0
1  10 0 0 0.317500000000017
2  33 5 0 0 0.317500000000017
2  34 5 5 0 0.317500000000017
2  35 9 0 0 0.317500000000017
0

0101000
+103 0 -74 0 *
Ed
 1e-07 1 1 0
1  10 0 0 0.317500000000017
2  33 5 0 0 0.317500000000017
2  34 5 5 0 0.317500000000017
2  35 9 0 0 0.317500000000017
0

0101000
+102 5 -73 5 *
Wi

0101100
+101 0 -72 0 -71 0 +70 3 *
Fa
0  1e-07 5 0

0101000
+69 0 *
Ve
1.00000085710952e-07
0.0595702614712394 914.4 68.2624740075684
0 0

0101101
*
Ve
1.00000085710952e-07
0.0595702614712394 964.4 68.2624740075684
0 0

0101101
*
Ed
 1e-07 1 1 0
1  11 0 0 50
2  36 10 0 0 50
2  37 8 0 0 50
2  38 11 0 0 50
2  39 13 0 0 50
0

0101000
+67 0 -66 0 *
Ed
 1.00000085710952e-07 1 1 0
1  12 0 3.1407199889638 3.14246531821579
2  40 10 0 3.1407199889638 3.14246531821579
2  41 10 5 3.1407199889638 3.14246531821579
2  42 9 0 3.1407199889638 3.14246531821579
2  43 11 0 3.1407199889638 3.14246531821579
2  44 14 0 3.1407199889638 3.14246531821579
0

0101000
+74 0 -67 0 *
Ed
 1.00000085710952e-07 1 1 0
1  12 0 3.1407199889638 3.14246531821579
2  40 10 0 3.1407199889638 3.14246531821579
2  41 10 5 3.1407199889638 3.14246531821579
2  42 9 0 3.1407199889638 3.14246531821579
2  45 11 5 3.1407199889638 3.14246531821579
2  46 14 7 3.1407199889638 3.14246531821579
0

0101000
+73 5 -66 5 *
Wi

0101100
+72 0 -65 0 -64 0 +63 3 *
Fa
0  1e-07 10 0

0101000
+62 0 *
Ed
 1e-07 1 1 0
1  13 0 0 0.317500000000017
2  47 9 0 0 0.317500000000017
2  48 8 0 0 0.317500000000017
2  49 8 5 0 0.317500000000017
0

0101000
+67 0 -96 0 *
Ed
 1e-07 1 1 0
1  13 0 0 0.317500000000017
2  47 9 0 0 0.317500000000017
2  48 8 0 0 0.317500000000017
2  49 8 5 0 0.317500000000017
0

0101000
+66 5 -95 5 *
Wi

0101100
+65 0 -94 0 -60 0 +59 3 *
Fa
0  1e-07 8 0

0101000
+58 0 *
Wi

0101100
+71 0 +64 0 +60 0 -93 0 *
Fa
0  1e-07 9 0

0101000
+56 0 *
Wi

0101100
+70 3 +63 3 +59 3 -92 1 *
Fa
0  1e-07 9 3

0101000
+54 0 *
Sh

0101100
+68 0 +61 0 +57 0 -90 0 +55 0 -53 0 *
So

0100000
-52 0 *
Ve
1.00000089699081e-07
-0.062340971307111 914.4 71.4374727986181
0 0

0101101
*
Ve
1.00000089699081e-07
-0.062340971307111 964.4 71.4374727986181
0 0

0101101
*
Ed
 1e-07 1 1 0
1  14 0 0 50
2  50 15 0 0 50
2  51 12 0 0 50
2  52 16 0 0 50
2  53 17 0 0 50
0

0101000
+50 0 -49 0 *
Ed
 1e-07 1 1 0
1  15 0 0 3.175
2  54 12 0 0 3.175
2  55 12 8 0 3.175
2  56 14 0 0 3.175
0

0101000
+74 0 -50 0 *
Ed
 1e-07 1 1 0
1  15 0 0 3.175
2  54 12 0 0 3.175
2  55 12 8 0 3.175
2  56 14 0 0 3.175
0

0101000
+73 8 -49 8 *
Wi

0101100
+72 0 -48 0 -47 0 +46 6 *
Fa
0  1e-07 12 0

0101000
+45 0 *
Ve
1.00000089699081e-07
0.062340971307111 914.4 71.4374727986181
0 0

0101101
*
Ve
1.00000089699081e-07
0.062340971307111 964.4 71.4374727986181
0 0

0101101
*
Ed
 1e-07 1 1 0
1  16 0 0 50
2  57 15 0 0 50
2  58 13 0 0 50
2  59 16 0 0 50
2  60 18 0 0 50
0

0101000
+43 0 -42 0 *
Ed
 1.00000089699081e-07 1 1 0
1  17 0 3.1407199889638 3.14246531821579
2  61 15 0 3.1407199889638 3.14246531821579
2  62 15 8 3.1407199889638 3.14246531821579
2  63 14 0 3.1407199889638 3.14246531821579
2  64 16 0 3.1407199889638 3.14246531821579
2  65 19 0 3.1407199889638 3.14246531821579
0

0101000
+50 0 -43 0 *
Ed
 1.00000089699081e-07 1 1 0
1  17 0 3.1407199889638 3.14246531821579
2  61 15 0 3.1407199889638 3.14246531821579
2  62 15 8 3.1407199889638 3.14246531821579
2  63 14 0 3.1407199889638 3.14246531821579
2  66 16 8 3.1407199889638 3.14246531821579
2  67 19 10 3.1407199889638 3.14246531821579
0

0101000
+49 8 -42 8 *
Wi

0101100
+48 0 -41 0 -40 0 +39 6 *
Fa
0  1e-07 15 0

0101000
+38 0 *
Ed
 1e-07 1 1 0
1  18 0 0 3.175
2  68 14 0 0 3.175
2  69 13 0 0 3.175
2  70 13 8 0 3.175
0

0101000
+43 0 -67 0 *
Ed
 1e-07 1 1 0
1  18 0 0 3.175
2  68 14 0 0 3.175
2  69 13 0 0 3.175
2  70 13 8 0 3.175
0

0101000
+42 8 -66 8 *
Wi

0101100
+41 0 -65 0 -36 0 +35 6 *
Fa
0  1e-07 13 0

0101000
+34 0 *
Wi

0101100
+47 0 +40 0 +36 0 -64 0 *
Fa
0  1e-07 14 0

0101000
+32 0 *
Wi

0101100
+46 6 +39 6 +35 6 -63 3 *
Fa
0  1e-07 14 6

0101000
+30 0 *
Sh

0101100
+44 0 +37 0 +33 0 -61 0 +31 0 -29 0 *
So

0100000
-28 0 *
Ve
1e-07
-0.0664970360609184 914.4 76.1999709851926
0 0

0101101
*
Ed
 1e-07 1 1 0
1  19 0 0 50
2  71 20 0 0 50
2  72 17 0 0 50
0

0101000
+26 0 -26 9 *
Ed
 1e-07 1 1 0
1  20 0 0 4.76249999999999
2  73 17 0 0 4.76249999999999
2  74 17 11 0 4.76249999999999
2  75 19 0 0 4.76249999999999
0

0101000
+50 0 -26 0 *
Ed
 1e-07 1 1 0
1  20 0 0 4.76249999999999
2  73 17 0 0 4.76249999999999
2  74 17 11 0 4.76249999999999
2  75 19 0 0 4.76249999999999
0

0101000
+49 11 -26 0 *
Wi

0101100
+48 0 -25 0 -24 0 +23 9 *
Fa
0  1e-07 17 0

0101000
+22 0 *
Ve
1e-07
0.0664970360609184 914.4 76.1999709851926
0 0

0101101
*
Ed
 1e-07 1 1 0
1  21 0 0 50
2  76 20 0 0 50
2  77 18 0 0 50
0

0101000
+20 0 -20 9 *
Ed
 1e-07 1 1 0
1  22 0 3.1407199889638 3.14246531821579
2  78 20 0 3.1407199889638 3.14246531821579
2  79 20 11 3.1407199889638 3.14246531821579
2  80 19 0 3.1407199889638 3.14246531821579
0

0101000
+26 0 -20 0 *
Wi

0101100
+25 0 -19 0 -18 0 +18 9 *
Fa
0  1e-07 20 0

0101000
+17 0 *
Ed
 1e-07 1 1 0
1  23 0 0 4.76249999999999
2  81 19 0 0 4.76249999999999
2  82 18 0 0 4.76249999999999
2  83 18 11 0 4.76249999999999
0

0101000
+20 0 -43 0 *
Ed
 1e-07 1 1 0
1  23 0 0 4.76249999999999
2  81 19 0 0 4.76249999999999
2  82 18 0 0 4.76249999999999
2  83 18 11 0 4.76249999999999
0

0101000
+20 0 -42 11 *
Wi

0101100
+19 0 -41 0 -15 0 +14 9 *
Fa
0  1e-07 18 0

0101000
+13 0 *
Wi

0101100
+24 0 +18 0 +15 0 -40 0 *
Fa
0  1e-07 19 0

0101000
+11 0 *
Wi

0101100
+23 9 +18 9 +14 9 -39 6 *
Fa
0  1e-07 19 9

0101000
+9 0 *
Sh

0101100
+21 0 +16 0 +12 0 -37 0 +10 0 -8 0 *
So

0100000
-7 0 *
Ve
1e-07
0 914.4 0
0 0

0101101
*
Ve
1e-07
0 914.4 0
0 0

0101101
*
Ve
1e-07
0 914.4 0
0 0

0101101
*
Ve
1e-07
0 914.4 0
0 0

0101101
*
Co

1100000
+75 0 +51 0 +27 0 +6 0 +5 0 +4 0 +3 0 +2 0 *

+1 0 